<?xml version="1.0" encoding="UTF-8" standalone="no"?>
<!DOCTYPE svg PUBLIC "-//W3C//DTD SVG 1.1//EN"
 "http://www.w3.org/Graphics/SVG/1.1/DTD/svg11.dtd">
<!-- Generated by graphviz version 2.43.0 (0)
 -->
<!-- Title: G Pages: 1 -->
<svg width="882pt" height="588pt"
 viewBox="0.00 0.00 882.00 588.00" xmlns="http://www.w3.org/2000/svg" xmlns:xlink="http://www.w3.org/1999/xlink">
<g id="graph0" class="graph" transform="scale(1 1) rotate(0) translate(4 584)">
<title>G</title>
<polygon fill="white" stroke="transparent" points="-4,4 -4,-584 878,-584 878,4 -4,4"/>
<g id="clust1" class="cluster">
<title>cluster_root</title>
<g id="a_clust1"><a xlink:title="eventq_index=0&#10;full_system=false&#10;sim_quantum=0&#10;time_sync_enable=false&#10;time_sync_period=100000000000&#10;time_sync_spin_threshold=100000000">
<path fill="#bab6ae" stroke="#000000" d="M20,-8C20,-8 854,-8 854,-8 860,-8 866,-14 866,-20 866,-20 866,-560 866,-560 866,-566 860,-572 854,-572 854,-572 20,-572 20,-572 14,-572 8,-566 8,-560 8,-560 8,-20 8,-20 8,-14 14,-8 20,-8"/>
<text text-anchor="middle" x="437" y="-556.8" font-family="Arial" font-size="14.00" fill="#000000">root </text>
<text text-anchor="middle" x="437" y="-541.8" font-family="Arial" font-size="14.00" fill="#000000">: Root</text>
</a>
</g>
</g>
<g id="clust2" class="cluster">
<title>cluster_system</title>
<g id="a_clust2"><a xlink:title="auto_unlink_shared_backstore=false&#10;cache_line_size=64&#10;eventq_index=0&#10;exit_on_work_items=false&#10;init_param=0&#10;m5ops_base=0&#10;mem_mode=timing&#10;mem_ranges=0:1073741824&#10;memories=system.mem_ctrl.dram&#10;mmap_using_noreserve=false&#10;multi_thread=false&#10;&#10;um_work_ids=16&#10;&#13;eadfile=&#10;&#13;edirect_paths=&#10;shadow_rom_ranges=&#10;shared_backstore=&#10;symbolfile=&#10;thermal_components=&#10;thermal_model=Null&#10;work_begin_ckpt_count=0&#10;work_begin_cpu_id_exit=&#45;1&#10;work_begin_exit_count=0&#10;work_cpus_ckpt_count=0&#10;work_end_ckpt_count=0&#10;work_end_exit_count=0&#10;work_item_id=&#45;1&#10;workload=system.workload">
<path fill="#e4e7eb" stroke="#000000" d="M28,-16C28,-16 846,-16 846,-16 852,-16 858,-22 858,-28 858,-28 858,-514 858,-514 858,-520 852,-526 846,-526 846,-526 28,-526 28,-526 22,-526 16,-520 16,-514 16,-514 16,-28 16,-28 16,-22 22,-16 28,-16"/>
<text text-anchor="middle" x="437" y="-510.8" font-family="Arial" font-size="14.00" fill="#000000">system </text>
<text text-anchor="middle" x="437" y="-495.8" font-family="Arial" font-size="14.00" fill="#000000">: System</text>
</a>
</g>
</g>
<g id="clust6" class="cluster">
<title>cluster_system_cpu</title>
<g id="a_clust6"><a xlink:title="LFSTSize=1024&#10;LQEntries=32&#10;LSQCheckLoads=true&#10;LSQDepCheckShift=4&#10;SQEntries=32&#10;SSITSize=1024&#10;activity=0&#10;backComSize=5&#10;branchPred=system.cpu.branchPred&#10;cacheLoadPorts=200&#10;cacheStorePorts=200&#10;checker=Null&#10;clk_domain=system.clk_domain&#10;commitToDecodeDelay=1&#10;commitToFetchDelay=1&#10;commitToIEWDelay=1&#10;commitToRenameDelay=1&#10;commitWidth=8&#10;cpu_id=&#45;1&#10;decodeToFetchDelay=1&#10;decodeToRenameDelay=1&#10;decodeWidth=8&#10;decoder=system.cpu.decoder&#10;dispatchWidth=8&#10;do_checkpoint_insts=true&#10;do_statistics_insts=true&#10;eventq_index=0&#10;fetchBufferSize=64&#10;fetchQueueSize=32&#10;fetchToDecodeDelay=1&#10;fetchTrapLatency=1&#10;fetchWidth=8&#10;forwardComSize=5&#10;fuPool=system.cpu.fuPool&#10;function_trace=false&#10;function_trace_start=0&#10;iewToCommitDelay=1&#10;iewToDecodeDelay=1&#10;iewToFetchDelay=1&#10;iewToRenameDelay=1&#10;interrupts=system.cpu.interrupts&#10;isa=system.cpu.isa&#10;issueToExecuteDelay=1&#10;issueWidth=8&#10;max_insts_all_threads=0&#10;max_insts_any_thread=0&#10;mmu=system.cpu.mmu&#10;&#10;eedsTSO=true&#10;&#10;umIQEntries=64&#10;&#10;umPhysCCRegs=1280&#10;&#10;umPhysFloatRegs=256&#10;&#10;umPhysIntRegs=256&#10;&#10;umPhysVecPredRegs=32&#10;&#10;umPhysVecRegs=256&#10;&#10;umROBEntries=192&#10;&#10;umRobs=1&#10;&#10;umThreads=1&#10;power_gating_on_idle=false&#10;power_model=&#10;power_state=system.cpu.power_state&#10;progress_interval=0&#10;pwr_gating_latency=300&#10;&#13;enameToDecodeDelay=1&#10;&#13;enameToFetchDelay=1&#10;&#13;enameToIEWDelay=2&#10;&#13;enameToROBDelay=1&#10;&#13;enameWidth=8&#10;simpoint_start_insts=&#10;smtCommitPolicy=RoundRobin&#10;smtFetchPolicy=RoundRobin&#10;smtIQPolicy=Partitioned&#10;smtIQThreshold=100&#10;smtLSQPolicy=Partitioned&#10;smtLSQThreshold=100&#10;smtNumFetchingThreads=1&#10;smtROBPolicy=Partitioned&#10;smtROBThreshold=100&#10;socket_id=0&#10;squashWidth=8&#10;store_set_clear_period=250000&#10;switched_out=false&#10;syscallRetryLatency=10000&#10;system=system&#10;tracer=system.cpu.tracer&#10;trapLatency=13&#10;wbWidth=8&#10;workload=system.cpu.workload">
<path fill="#bbc6d9" stroke="#000000" d="M121,-24C121,-24 814,-24 814,-24 820,-24 826,-30 826,-36 826,-36 826,-286 826,-286 826,-292 820,-298 814,-298 814,-298 121,-298 121,-298 115,-298 109,-292 109,-286 109,-286 109,-36 109,-36 109,-30 115,-24 121,-24"/>
<text text-anchor="middle" x="467.5" y="-282.8" font-family="Arial" font-size="14.00" fill="#000000">cpu </text>
<text text-anchor="middle" x="467.5" y="-267.8" font-family="Arial" font-size="14.00" fill="#000000">: X86O3CPU</text>
</a>
</g>
</g>
<g id="clust76" class="cluster">
<title>cluster_system_cpu_icache</title>
<g id="a_clust76"><a xlink:title="addr_ranges=0:18446744073709551615&#10;assoc=4&#10;clk_domain=system.clk_domain&#10;clusivity=mostly_incl&#10;compressor=Null&#10;data_latency=2&#10;demand_mshr_reserve=1&#10;eventq_index=0&#10;is_read_only=false&#10;max_miss_count=0&#10;move_contractions=true&#10;mshrs=4&#10;power_model=&#10;power_state=system.cpu.icache.power_state&#10;prefetch_on_access=false&#10;prefetch_on_pf_hit=false&#10;prefetcher=Null&#10;&#13;eplace_expansions=true&#10;&#13;eplacement_policy=system.cpu.icache.replacement_policy&#10;&#13;esponse_latency=2&#10;sequential_access=false&#10;size=16384&#10;system=system&#10;tag_latency=2&#10;tags=system.cpu.icache.tags&#10;tgts_per_mshr=20&#10;warmup_percentage=0&#10;write_allocator=Null&#10;write_buffers=8&#10;writeback_clean=false">
<path fill="#bab6ae" stroke="#000000" d="M289,-32C289,-32 451,-32 451,-32 457,-32 463,-38 463,-44 463,-44 463,-110 463,-110 463,-116 457,-122 451,-122 451,-122 289,-122 289,-122 283,-122 277,-116 277,-110 277,-110 277,-44 277,-44 277,-38 283,-32 289,-32"/>
<text text-anchor="middle" x="370" y="-106.8" font-family="Arial" font-size="14.00" fill="#000000">icache </text>
<text text-anchor="middle" x="370" y="-91.8" font-family="Arial" font-size="14.00" fill="#000000">: L1ICache</text>
</a>
</g>
</g>
<g id="clust82" class="cluster">
<title>cluster_system_cpu_dcache</title>
<g id="a_clust82"><a xlink:title="addr_ranges=0:18446744073709551615&#10;assoc=4&#10;clk_domain=system.clk_domain&#10;clusivity=mostly_incl&#10;compressor=Null&#10;data_latency=2&#10;demand_mshr_reserve=1&#10;eventq_index=0&#10;is_read_only=false&#10;max_miss_count=0&#10;move_contractions=true&#10;mshrs=4&#10;power_model=&#10;power_state=system.cpu.dcache.power_state&#10;prefetch_on_access=false&#10;prefetch_on_pf_hit=false&#10;prefetcher=Null&#10;&#13;eplace_expansions=true&#10;&#13;eplacement_policy=system.cpu.dcache.replacement_policy&#10;&#13;esponse_latency=2&#10;sequential_access=false&#10;size=65536&#10;system=system&#10;tag_latency=2&#10;tags=system.cpu.dcache.tags&#10;tgts_per_mshr=20&#10;warmup_percentage=0&#10;write_allocator=Null&#10;write_buffers=8&#10;writeback_clean=false">
<path fill="#bab6ae" stroke="#000000" d="M563,-32C563,-32 725,-32 725,-32 731,-32 737,-38 737,-44 737,-44 737,-110 737,-110 737,-116 731,-122 725,-122 725,-122 563,-122 563,-122 557,-122 551,-116 551,-110 551,-110 551,-44 551,-44 551,-38 557,-32 563,-32"/>
<text text-anchor="middle" x="644" y="-106.8" font-family="Arial" font-size="14.00" fill="#000000">dcache </text>
<text text-anchor="middle" x="644" y="-91.8" font-family="Arial" font-size="14.00" fill="#000000">: L1DCache</text>
</a>
</g>
</g>
<g id="clust88" class="cluster">
<title>cluster_system_cpu_l2cache</title>
<g id="a_clust88"><a xlink:title="addr_ranges=0:18446744073709551615&#10;assoc=8&#10;clk_domain=system.clk_domain&#10;clusivity=mostly_incl&#10;compressor=Null&#10;data_latency=20&#10;demand_mshr_reserve=1&#10;eventq_index=0&#10;is_read_only=false&#10;max_miss_count=0&#10;move_contractions=true&#10;mshrs=20&#10;power_model=&#10;power_state=system.cpu.l2cache.power_state&#10;prefetch_on_access=false&#10;prefetch_on_pf_hit=false&#10;prefetcher=Null&#10;&#13;eplace_expansions=true&#10;&#13;eplacement_policy=system.cpu.l2cache.replacement_policy&#10;&#13;esponse_latency=20&#10;sequential_access=false&#10;size=524288&#10;system=system&#10;tag_latency=20&#10;tags=system.cpu.l2cache.tags&#10;tgts_per_mshr=12&#10;warmup_percentage=0&#10;write_allocator=Null&#10;write_buffers=8&#10;writeback_clean=false">
<path fill="#bab6ae" stroke="#000000" d="M644,-162C644,-162 806,-162 806,-162 812,-162 818,-168 818,-174 818,-174 818,-240 818,-240 818,-246 812,-252 806,-252 806,-252 644,-252 644,-252 638,-252 632,-246 632,-240 632,-240 632,-174 632,-174 632,-168 638,-162 644,-162"/>
<text text-anchor="middle" x="725" y="-236.8" font-family="Arial" font-size="14.00" fill="#000000">l2cache </text>
<text text-anchor="middle" x="725" y="-221.8" font-family="Arial" font-size="14.00" fill="#000000">: L2Cache</text>
</a>
</g>
</g>
<g id="clust94" class="cluster">
<title>cluster_system_cpu_interrupts</title>
<g id="a_clust94"><a xlink:title="clk_domain=system.cpu.interrupts.clk_domain&#10;eventq_index=0&#10;int_latency=1000&#10;pio_latency=100000&#10;system=system">
<path fill="#bab6ae" stroke="#000000" d="M335,-162C335,-162 612,-162 612,-162 618,-162 624,-168 624,-174 624,-174 624,-240 624,-240 624,-246 618,-252 612,-252 612,-252 335,-252 335,-252 329,-252 323,-246 323,-240 323,-240 323,-174 323,-174 323,-168 329,-162 335,-162"/>
<text text-anchor="middle" x="473.5" y="-236.8" font-family="Arial" font-size="14.00" fill="#000000">interrupts </text>
<text text-anchor="middle" x="473.5" y="-221.8" font-family="Arial" font-size="14.00" fill="#000000">: X86LocalApic</text>
</a>
</g>
</g>
<g id="clust99" class="cluster">
<title>cluster_system_membus</title>
<g id="a_clust99"><a xlink:title="clk_domain=system.clk_domain&#10;eventq_index=0&#10;forward_latency=4&#10;frontend_latency=3&#10;header_latency=1&#10;max_outstanding_snoops=512&#10;max_routing_table_size=512&#10;point_of_coherency=true&#10;point_of_unification=true&#10;power_model=&#10;power_state=system.membus.power_state&#10;&#13;esponse_latency=2&#10;snoop_filter=system.membus.snoop_filter&#10;snoop_response_latency=4&#10;system=system&#10;use_default_range=false&#10;width=16">
<path fill="#6f798c" stroke="#000000" d="M334,-306C334,-306 570,-306 570,-306 576,-306 582,-312 582,-318 582,-318 582,-384 582,-384 582,-390 576,-396 570,-396 570,-396 334,-396 334,-396 328,-396 322,-390 322,-384 322,-384 322,-318 322,-318 322,-312 328,-306 334,-306"/>
<text text-anchor="middle" x="452" y="-380.8" font-family="Arial" font-size="14.00" fill="#000000">membus </text>
<text text-anchor="middle" x="452" y="-365.8" font-family="Arial" font-size="14.00" fill="#000000">: SystemXBar</text>
</a>
</g>
</g>
<g id="clust102" class="cluster">
<title>cluster_system_l2bus</title>
<g id="a_clust102"><a xlink:title="clk_domain=system.clk_domain&#10;eventq_index=0&#10;forward_latency=0&#10;frontend_latency=1&#10;header_latency=1&#10;max_outstanding_snoops=512&#10;max_routing_table_size=512&#10;point_of_coherency=false&#10;point_of_unification=true&#10;power_model=&#10;power_state=system.l2bus.power_state&#10;&#13;esponse_latency=1&#10;snoop_filter=system.l2bus.snoop_filter&#10;snoop_response_latency=1&#10;system=system&#10;use_default_range=false&#10;width=32">
<path fill="#6f798c" stroke="#000000" d="M602,-306C602,-306 838,-306 838,-306 844,-306 850,-312 850,-318 850,-318 850,-384 850,-384 850,-390 844,-396 838,-396 838,-396 602,-396 602,-396 596,-396 590,-390 590,-384 590,-384 590,-318 590,-318 590,-312 596,-306 602,-306"/>
<text text-anchor="middle" x="720" y="-380.8" font-family="Arial" font-size="14.00" fill="#000000">l2bus </text>
<text text-anchor="middle" x="720" y="-365.8" font-family="Arial" font-size="14.00" fill="#000000">: L2XBar</text>
</a>
</g>
</g>
<g id="clust105" class="cluster">
<title>cluster_system_mem_ctrl</title>
<g id="a_clust105"><a xlink:title="clk_domain=system.clk_domain&#10;command_window=10000&#10;disable_sanity_check=false&#10;dram=system.mem_ctrl.dram&#10;eventq_index=0&#10;mem_sched_policy=frfcfs&#10;min_reads_per_switch=16&#10;min_writes_per_switch=16&#10;power_model=&#10;power_state=system.mem_ctrl.power_state&#10;qos_policy=Null&#10;qos_priorities=1&#10;qos_priority_escalation=false&#10;qos_q_policy=fifo&#10;qos_requestors= &#160;&#160;&#160;&#160;&#160;&#160;&#160;&#160;&#160;&#160;&#160;&#160;&#160;&#160;&#10;qos_syncro_scheduler=false&#10;qos_turnaround_policy=Null&#10;static_backend_latency=10000&#10;static_frontend_latency=10000&#10;system=system&#10;write_high_thresh_perc=85&#10;write_low_thresh_perc=50">
<path fill="#bab6ae" stroke="#000000" d="M36,-162C36,-162 89,-162 89,-162 95,-162 101,-168 101,-174 101,-174 101,-240 101,-240 101,-246 95,-252 89,-252 89,-252 36,-252 36,-252 30,-252 24,-246 24,-240 24,-240 24,-174 24,-174 24,-168 30,-162 36,-162"/>
<text text-anchor="middle" x="62.5" y="-236.8" font-family="Arial" font-size="14.00" fill="#000000">mem_ctrl </text>
<text text-anchor="middle" x="62.5" y="-221.8" font-family="Arial" font-size="14.00" fill="#000000">: MemCtrl</text>
</a>
</g>
</g>
<!-- system_system_port -->
<g id="node1" class="node">
<title>system_system_port</title>
<path fill="#b6b8bc" stroke="#000000" d="M553.5,-480C553.5,-480 486.5,-480 486.5,-480 480.5,-480 474.5,-474 474.5,-468 474.5,-468 474.5,-456 474.5,-456 474.5,-450 480.5,-444 486.5,-444 486.5,-444 553.5,-444 553.5,-444 559.5,-444 565.5,-450 565.5,-456 565.5,-456 565.5,-468 565.5,-468 565.5,-474 559.5,-480 553.5,-480"/>
<text text-anchor="middle" x="520" y="-458.3" font-family="Arial" font-size="14.00" fill="#000000">system_port</text>
</g>
<!-- system_membus_cpu_side_ports -->
<g id="node13" class="node">
<title>system_membus_cpu_side_ports</title>
<path fill="#586070" stroke="#000000" d="M562,-350C562,-350 478,-350 478,-350 472,-350 466,-344 466,-338 466,-338 466,-326 466,-326 466,-320 472,-314 478,-314 478,-314 562,-314 562,-314 568,-314 574,-320 574,-326 574,-326 574,-338 574,-338 574,-344 568,-350 562,-350"/>
<text text-anchor="middle" x="520" y="-328.3" font-family="Arial" font-size="14.00" fill="#000000">cpu_side_ports</text>
</g>
<!-- system_system_port&#45;&gt;system_membus_cpu_side_ports -->
<g id="edge1" class="edge">
<title>system_system_port&#45;&gt;system_membus_cpu_side_ports</title>
<path fill="none" stroke="black" d="M520,-443.74C520,-422.36 520,-385.69 520,-360.44"/>
<polygon fill="black" stroke="black" points="523.5,-360.4 520,-350.4 516.5,-360.4 523.5,-360.4"/>
</g>
<!-- system_cpu_icache_port -->
<g id="node2" class="node">
<title>system_cpu_icache_port</title>
<path fill="#959ead" stroke="#000000" d="M191,-206C191,-206 129,-206 129,-206 123,-206 117,-200 117,-194 117,-194 117,-182 117,-182 117,-176 123,-170 129,-170 129,-170 191,-170 191,-170 197,-170 203,-176 203,-182 203,-182 203,-194 203,-194 203,-200 197,-206 191,-206"/>
<text text-anchor="middle" x="160" y="-184.3" font-family="Arial" font-size="14.00" fill="#000000">icache_port</text>
</g>
<!-- system_cpu_icache_cpu_side -->
<g id="node4" class="node">
<title>system_cpu_icache_cpu_side</title>
<path fill="#94918b" stroke="#000000" d="M344.5,-76C344.5,-76 297.5,-76 297.5,-76 291.5,-76 285.5,-70 285.5,-64 285.5,-64 285.5,-52 285.5,-52 285.5,-46 291.5,-40 297.5,-40 297.5,-40 344.5,-40 344.5,-40 350.5,-40 356.5,-46 356.5,-52 356.5,-52 356.5,-64 356.5,-64 356.5,-70 350.5,-76 344.5,-76"/>
<text text-anchor="middle" x="321" y="-54.3" font-family="Arial" font-size="14.00" fill="#000000">cpu_side</text>
</g>
<!-- system_cpu_icache_port&#45;&gt;system_cpu_icache_cpu_side -->
<g id="edge2" class="edge">
<title>system_cpu_icache_port&#45;&gt;system_cpu_icache_cpu_side</title>
<path fill="none" stroke="black" d="M181.71,-169.74C210,-147.25 259.58,-107.83 291.32,-82.6"/>
<polygon fill="black" stroke="black" points="293.72,-85.16 299.37,-76.19 289.37,-79.68 293.72,-85.16"/>
</g>
<!-- system_cpu_dcache_port -->
<g id="node3" class="node">
<title>system_cpu_dcache_port</title>
<path fill="#959ead" stroke="#000000" d="M300.5,-206C300.5,-206 233.5,-206 233.5,-206 227.5,-206 221.5,-200 221.5,-194 221.5,-194 221.5,-182 221.5,-182 221.5,-176 227.5,-170 233.5,-170 233.5,-170 300.5,-170 300.5,-170 306.5,-170 312.5,-176 312.5,-182 312.5,-182 312.5,-194 312.5,-194 312.5,-200 306.5,-206 300.5,-206"/>
<text text-anchor="middle" x="267" y="-184.3" font-family="Arial" font-size="14.00" fill="#000000">dcache_port</text>
</g>
<!-- system_cpu_dcache_cpu_side -->
<g id="node6" class="node">
<title>system_cpu_dcache_cpu_side</title>
<path fill="#94918b" stroke="#000000" d="M618.5,-76C618.5,-76 571.5,-76 571.5,-76 565.5,-76 559.5,-70 559.5,-64 559.5,-64 559.5,-52 559.5,-52 559.5,-46 565.5,-40 571.5,-40 571.5,-40 618.5,-40 618.5,-40 624.5,-40 630.5,-46 630.5,-52 630.5,-52 630.5,-64 630.5,-64 630.5,-70 624.5,-76 618.5,-76"/>
<text text-anchor="middle" x="595" y="-54.3" font-family="Arial" font-size="14.00" fill="#000000">cpu_side</text>
</g>
<!-- system_cpu_dcache_port&#45;&gt;system_cpu_dcache_cpu_side -->
<g id="edge3" class="edge">
<title>system_cpu_dcache_port&#45;&gt;system_cpu_dcache_cpu_side</title>
<path fill="none" stroke="black" d="M300.17,-169.94C306.35,-167.08 312.8,-164.3 319,-162 382.86,-138.25 403.25,-146.05 467,-122 497.52,-110.49 530.5,-94.15 555.35,-81"/>
<polygon fill="black" stroke="black" points="557.28,-83.93 564.45,-76.13 553.98,-77.76 557.28,-83.93"/>
</g>
<!-- system_cpu_icache_mem_side -->
<g id="node5" class="node">
<title>system_cpu_icache_mem_side</title>
<path fill="#94918b" stroke="#000000" d="M443,-76C443,-76 387,-76 387,-76 381,-76 375,-70 375,-64 375,-64 375,-52 375,-52 375,-46 381,-40 387,-40 387,-40 443,-40 443,-40 449,-40 455,-46 455,-52 455,-52 455,-64 455,-64 455,-70 449,-76 443,-76"/>
<text text-anchor="middle" x="415" y="-54.3" font-family="Arial" font-size="14.00" fill="#000000">mem_side</text>
</g>
<!-- system_cpu_dcache_mem_side -->
<g id="node7" class="node">
<title>system_cpu_dcache_mem_side</title>
<path fill="#94918b" stroke="#000000" d="M717,-76C717,-76 661,-76 661,-76 655,-76 649,-70 649,-64 649,-64 649,-52 649,-52 649,-46 655,-40 661,-40 661,-40 717,-40 717,-40 723,-40 729,-46 729,-52 729,-52 729,-64 729,-64 729,-70 723,-76 717,-76"/>
<text text-anchor="middle" x="689" y="-54.3" font-family="Arial" font-size="14.00" fill="#000000">mem_side</text>
</g>
<!-- system_cpu_l2cache_cpu_side -->
<g id="node8" class="node">
<title>system_cpu_l2cache_cpu_side</title>
<path fill="#94918b" stroke="#000000" d="M797.5,-206C797.5,-206 750.5,-206 750.5,-206 744.5,-206 738.5,-200 738.5,-194 738.5,-194 738.5,-182 738.5,-182 738.5,-176 744.5,-170 750.5,-170 750.5,-170 797.5,-170 797.5,-170 803.5,-170 809.5,-176 809.5,-182 809.5,-182 809.5,-194 809.5,-194 809.5,-200 803.5,-206 797.5,-206"/>
<text text-anchor="middle" x="774" y="-184.3" font-family="Arial" font-size="14.00" fill="#000000">cpu_side</text>
</g>
<!-- system_cpu_l2cache_mem_side -->
<g id="node9" class="node">
<title>system_cpu_l2cache_mem_side</title>
<path fill="#94918b" stroke="#000000" d="M708,-206C708,-206 652,-206 652,-206 646,-206 640,-200 640,-194 640,-194 640,-182 640,-182 640,-176 646,-170 652,-170 652,-170 708,-170 708,-170 714,-170 720,-176 720,-182 720,-182 720,-194 720,-194 720,-200 714,-206 708,-206"/>
<text text-anchor="middle" x="680" y="-184.3" font-family="Arial" font-size="14.00" fill="#000000">mem_side</text>
</g>
<!-- system_cpu_interrupts_int_requestor -->
<g id="node10" class="node">
<title>system_cpu_interrupts_int_requestor</title>
<path fill="#94918b" stroke="#000000" d="M603.5,-206C603.5,-206 532.5,-206 532.5,-206 526.5,-206 520.5,-200 520.5,-194 520.5,-194 520.5,-182 520.5,-182 520.5,-176 526.5,-170 532.5,-170 532.5,-170 603.5,-170 603.5,-170 609.5,-170 615.5,-176 615.5,-182 615.5,-182 615.5,-194 615.5,-194 615.5,-200 609.5,-206 603.5,-206"/>
<text text-anchor="middle" x="568" y="-184.3" font-family="Arial" font-size="14.00" fill="#000000">int_requestor</text>
</g>
<!-- system_cpu_interrupts_int_responder -->
<g id="node11" class="node">
<title>system_cpu_interrupts_int_responder</title>
<path fill="#94918b" stroke="#000000" d="M490.5,-206C490.5,-206 415.5,-206 415.5,-206 409.5,-206 403.5,-200 403.5,-194 403.5,-194 403.5,-182 403.5,-182 403.5,-176 409.5,-170 415.5,-170 415.5,-170 490.5,-170 490.5,-170 496.5,-170 502.5,-176 502.5,-182 502.5,-182 502.5,-194 502.5,-194 502.5,-200 496.5,-206 490.5,-206"/>
<text text-anchor="middle" x="453" y="-184.3" font-family="Arial" font-size="14.00" fill="#000000">int_responder</text>
</g>
<!-- system_cpu_interrupts_pio -->
<g id="node12" class="node">
<title>system_cpu_interrupts_pio</title>
<path fill="#94918b" stroke="#000000" d="M373,-206C373,-206 343,-206 343,-206 337,-206 331,-200 331,-194 331,-194 331,-182 331,-182 331,-176 337,-170 343,-170 343,-170 373,-170 373,-170 379,-170 385,-176 385,-182 385,-182 385,-194 385,-194 385,-200 379,-206 373,-206"/>
<text text-anchor="middle" x="358" y="-184.3" font-family="Arial" font-size="14.00" fill="#000000">pio</text>
</g>
<!-- system_membus_cpu_side_ports&#45;&gt;system_cpu_l2cache_mem_side -->
<g id="edge4" class="edge">
<title>system_membus_cpu_side_ports&#45;&gt;system_cpu_l2cache_mem_side</title>
<path fill="none" stroke="black" d="M571.68,-310.46C576.48,-308.84 581.31,-307.32 586,-306 604.29,-300.84 612.95,-309.6 628,-298 657.88,-274.95 671.45,-230.43 676.87,-206.02"/>
<polygon fill="black" stroke="black" points="570.17,-307.28 561.89,-313.89 572.48,-313.88 570.17,-307.28"/>
</g>
<!-- system_membus_cpu_side_ports&#45;&gt;system_cpu_interrupts_int_requestor -->
<g id="edge5" class="edge">
<title>system_membus_cpu_side_ports&#45;&gt;system_cpu_interrupts_int_requestor</title>
<path fill="none" stroke="black" d="M529.11,-304.06C538.84,-275.28 553.96,-230.53 562.19,-206.19"/>
<polygon fill="black" stroke="black" points="525.68,-303.28 525.79,-313.87 532.31,-305.52 525.68,-303.28"/>
</g>
<!-- system_membus_mem_side_ports -->
<g id="node14" class="node">
<title>system_membus_mem_side_ports</title>
<path fill="#586070" stroke="#000000" d="M436,-350C436,-350 342,-350 342,-350 336,-350 330,-344 330,-338 330,-338 330,-326 330,-326 330,-320 336,-314 342,-314 342,-314 436,-314 436,-314 442,-314 448,-320 448,-326 448,-326 448,-338 448,-338 448,-344 442,-350 436,-350"/>
<text text-anchor="middle" x="389" y="-328.3" font-family="Arial" font-size="14.00" fill="#000000">mem_side_ports</text>
</g>
<!-- system_membus_mem_side_ports&#45;&gt;system_cpu_interrupts_int_responder -->
<g id="edge7" class="edge">
<title>system_membus_mem_side_ports&#45;&gt;system_cpu_interrupts_int_responder</title>
<path fill="none" stroke="black" d="M396.72,-313.87C407.72,-289.46 428.02,-244.43 441,-215.64"/>
<polygon fill="black" stroke="black" points="444.33,-216.74 445.25,-206.19 437.95,-213.87 444.33,-216.74"/>
</g>
<!-- system_membus_mem_side_ports&#45;&gt;system_cpu_interrupts_pio -->
<g id="edge6" class="edge">
<title>system_membus_mem_side_ports&#45;&gt;system_cpu_interrupts_pio</title>
<path fill="none" stroke="black" d="M385.26,-313.87C379.95,-289.56 370.19,-244.82 363.9,-216.01"/>
<polygon fill="black" stroke="black" points="367.3,-215.21 361.75,-206.19 360.47,-216.71 367.3,-215.21"/>
</g>
<!-- system_mem_ctrl_port -->
<g id="node17" class="node">
<title>system_mem_ctrl_port</title>
<path fill="#94918b" stroke="#000000" d="M81,-206C81,-206 51,-206 51,-206 45,-206 39,-200 39,-194 39,-194 39,-182 39,-182 39,-176 45,-170 51,-170 51,-170 81,-170 81,-170 87,-170 93,-176 93,-182 93,-182 93,-194 93,-194 93,-200 87,-206 81,-206"/>
<text text-anchor="middle" x="66" y="-184.3" font-family="Arial" font-size="14.00" fill="#000000">port</text>
</g>
<!-- system_membus_mem_side_ports&#45;&gt;system_mem_ctrl_port -->
<g id="edge8" class="edge">
<title>system_membus_mem_side_ports&#45;&gt;system_mem_ctrl_port</title>
<path fill="none" stroke="black" d="M329.71,-331.27C256.84,-330.41 138.66,-324.75 105,-298 80.22,-278.31 71.17,-241.59 67.87,-216.25"/>
<polygon fill="black" stroke="black" points="71.34,-215.73 66.78,-206.17 64.38,-216.48 71.34,-215.73"/>
</g>
<!-- system_l2bus_cpu_side_ports -->
<g id="node15" class="node">
<title>system_l2bus_cpu_side_ports</title>
<path fill="#586070" stroke="#000000" d="M830,-350C830,-350 746,-350 746,-350 740,-350 734,-344 734,-338 734,-338 734,-326 734,-326 734,-320 740,-314 746,-314 746,-314 830,-314 830,-314 836,-314 842,-320 842,-326 842,-326 842,-338 842,-338 842,-344 836,-350 830,-350"/>
<text text-anchor="middle" x="788" y="-328.3" font-family="Arial" font-size="14.00" fill="#000000">cpu_side_ports</text>
</g>
<!-- system_l2bus_cpu_side_ports&#45;&gt;system_cpu_icache_mem_side -->
<g id="edge9" class="edge">
<title>system_l2bus_cpu_side_ports&#45;&gt;system_cpu_icache_mem_side</title>
<path fill="none" stroke="black" d="M817.36,-306.18C819.2,-303.6 820.79,-300.86 822,-298 827.89,-284.08 831.89,-173.43 822,-162 781.6,-115.3 606.09,-139.95 547,-122 509.95,-110.75 470.2,-90.54 444.11,-76.05"/>
<polygon fill="black" stroke="black" points="814.62,-304 810.83,-313.89 819.96,-308.52 814.62,-304"/>
</g>
<!-- system_l2bus_cpu_side_ports&#45;&gt;system_cpu_dcache_mem_side -->
<g id="edge10" class="edge">
<title>system_l2bus_cpu_side_ports&#45;&gt;system_cpu_dcache_mem_side</title>
<path fill="none" stroke="black" d="M828.14,-306.52C830.43,-303.9 832.43,-301.06 834,-298 861.6,-244.23 861.73,-215.71 834,-162 812.19,-119.75 764.14,-91.06 729.32,-74.9"/>
<polygon fill="black" stroke="black" points="825.4,-304.31 820.59,-313.75 830.23,-309.37 825.4,-304.31"/>
</g>
<!-- system_l2bus_mem_side_ports -->
<g id="node16" class="node">
<title>system_l2bus_mem_side_ports</title>
<path fill="#586070" stroke="#000000" d="M704,-350C704,-350 610,-350 610,-350 604,-350 598,-344 598,-338 598,-338 598,-326 598,-326 598,-320 604,-314 610,-314 610,-314 704,-314 704,-314 710,-314 716,-320 716,-326 716,-326 716,-338 716,-338 716,-344 710,-350 704,-350"/>
<text text-anchor="middle" x="657" y="-328.3" font-family="Arial" font-size="14.00" fill="#000000">mem_side_ports</text>
</g>
<!-- system_l2bus_mem_side_ports&#45;&gt;system_cpu_l2cache_cpu_side -->
<g id="edge11" class="edge">
<title>system_l2bus_mem_side_ports&#45;&gt;system_cpu_l2cache_cpu_side</title>
<path fill="none" stroke="black" d="M707.45,-313.86C715.35,-309.57 722.9,-304.34 729,-298 750.89,-275.26 762.74,-240.37 768.7,-216.22"/>
<polygon fill="black" stroke="black" points="772.15,-216.8 770.97,-206.27 765.33,-215.24 772.15,-216.8"/>
</g>
</g>
</svg>
